<svg version="1" xmlns="http://www.w3.org/2000/svg" width="365.333" height="365.333" viewBox="0 0 274.000000 274.000000"><path d="M68.6 69.9L.7 137.7l67.7 67.4c37.2 37.1 68.1 67.5 68.6 67.7 1 .4 136-133.7 136-135.1 0-.9-134.5-135-135.8-135.4-.4-.1-31.2 30.3-68.6 67.6zm192.1 68.9c-.9 1.1-120.2 120.2-123.2 123.1-.6.5-124.5-123.1-124.5-124.2 0-.4 28-28.7 62.2-62.7l62.2-61.8 62.3 62.1c52.2 52 62 62.3 61 63.5z"/><path d="M90.8 97.3c-15.5 5.6-24.7 19-25.3 36.5-.9 26.3 16.4 43 43.7 42.1 8.2-.2 18.9-2.4 19.9-4 .7-1.1-.9-10-2-11.1-.3-.3-3.4 0-6.9.7-7.7 1.6-18.4 1.3-23.2-.7-9.4-4-14-11.5-14.5-23.8-.7-14.2 5.3-24.1 16.6-27.4 5.4-1.7 17.1-1.5 23.8.3 2.3.7 4.4 1.1 4.5.9.1-.2.7-2.8 1.3-5.8.8-4 .8-5.7-.1-6.2-3.1-2.1-9.2-3.1-20.1-3.3-10.1-.3-12.9 0-17.7 1.8zM166.5 96.4c-19.3 5-29.7 20-28.9 41.6.6 16.4 7.8 27.5 22.4 34.4 6.2 2.9 7.1 3.1 19 3.1 11.3 0 18.3-1.1 21.7-3.3.9-.5.9-2 .1-5.7-.5-2.8-1.3-5.3-1.7-5.7-.3-.4-3.3 0-6.5.7-7.1 1.7-18.8 1.3-23.6-.7-9.3-3.9-14-11.5-14.6-23.4-.6-13.3 3.5-21.5 13.2-26.3 5.8-2.9 16.6-3.6 25.2-1.6 3.1.8 6 1.1 6.3.7.4-.4 1.2-2.9 1.7-5.7 1.2-5.5 1-5.8-4.8-7.6-5.6-1.7-23.8-2-29.5-.5z"/></svg>