<svg xmlns="http://www.w3.org/2000/svg" viewBox="0 0 700 150.52"><defs><style>.cls-1{fill:#000;}</style></defs><g id="Capa_2" data-name="Capa 2"><g id="Capa_1-2" data-name="Capa 1"><path class="cls-1" d="M114,102.46V45.15h40V56.34H127.35v11H151V78.27H127.35v13H156v11.19Z"/><path class="cls-1" d="M186.21,78.63q0-6.15-1.58-8.71t-5.42-2.56q-1.2,0-2.48.13t-2.48.3v34.69H161.52V59.06q1.62-.43,3.8-.9t4.61-.85q2.43-.39,5-.6t5-.21a21.22,21.22,0,0,1,7.9,1.24,17.83,17.83,0,0,1,5,2.95,23.79,23.79,0,0,1,12.82-4.19,22.44,22.44,0,0,1,8.84,1.5A13.33,13.33,0,0,1,220,62.22a16,16,0,0,1,2.82,6.49,41.86,41.86,0,0,1,.77,8.37v25.37H210.9V78.63q0-6.15-1.58-8.71t-5.42-2.56a11.49,11.49,0,0,0-2.86.51,11.14,11.14,0,0,0-3,1.28,19.48,19.48,0,0,1,.77,4.14q.17,2.18.17,4.66v24.52H186.21Z"/><path class="cls-1" d="M273.52,80a32.93,32.93,0,0,1-1.28,9.48,21.35,21.35,0,0,1-3.76,7.35,17,17,0,0,1-6.15,4.78,19.87,19.87,0,0,1-8.46,1.71,22.73,22.73,0,0,1-5-.51,23.77,23.77,0,0,1-4.44-1.45v16.91H231.75V59.06q1.71-.51,3.93-1t4.66-.81q2.43-.34,5-.56t4.83-.21A27.57,27.57,0,0,1,260,58.16a19.6,19.6,0,0,1,11.92,12.09A28.44,28.44,0,0,1,273.52,80Zm-13,.34q0-5.89-2.65-9.44T250,67.35q-1.71,0-3.16.13t-2.39.3v23A11.08,11.08,0,0,0,247.59,92a15.07,15.07,0,0,0,3.89.51Q260.54,92.55,260.54,80.33Z"/><path class="cls-1" d="M296.08,56.33a29.49,29.49,0,0,1,9.4,1.28,14.6,14.6,0,0,1,6,3.67,13.54,13.54,0,0,1,3.2,5.81,28.68,28.68,0,0,1,.94,7.6v26.48q-2.73.6-7.6,1.41a73.06,73.06,0,0,1-11.79.81,37.31,37.31,0,0,1-7.9-.77,17.12,17.12,0,0,1-6.11-2.52,11.51,11.51,0,0,1-3.93-4.57,15.77,15.77,0,0,1-1.37-6.92A13.1,13.1,0,0,1,278.52,82a12.14,12.14,0,0,1,4.23-4.36,19.09,19.09,0,0,1,6.07-2.35,34.06,34.06,0,0,1,7.09-.73,40.74,40.74,0,0,1,4.4.21,19.62,19.62,0,0,1,3.12.56V74.1a7,7,0,0,0-2-5.21q-2-2-6.84-2a43.53,43.53,0,0,0-6.41.47,27.56,27.56,0,0,0-5.47,1.32l-1.62-10.25q1.11-.34,2.78-.73t3.63-.68q2-.3,4.14-.51T296.08,56.33Zm1,37.25q1.88,0,3.59-.09a24.36,24.36,0,0,0,2.73-.26V83.58q-.77-.17-2.31-.34a25.91,25.91,0,0,0-2.82-.17,25.55,25.55,0,0,0-3.37.21,8.87,8.87,0,0,0-2.78.81,4.77,4.77,0,0,0-1.88,1.62,4.52,4.52,0,0,0-.68,2.56q0,3,2,4.14A11.09,11.09,0,0,0,297.1,93.58Z"/><path class="cls-1" d="M323.33,46.33l12.73-2V57.52h15.29V68.12H336.06v15.8a12.57,12.57,0,0,0,1.41,6.41q1.41,2.39,5.68,2.39a24.37,24.37,0,0,0,4.23-.38,21.69,21.69,0,0,0,4-1.07l1.8,9.91A35.7,35.7,0,0,1,348,102.8a29.85,29.85,0,0,1-6.92.68,22.79,22.79,0,0,1-8.63-1.41A13.55,13.55,0,0,1,327,98.15,14.61,14.61,0,0,1,324.14,92a36.09,36.09,0,0,1-.81-7.95Z"/><path class="cls-1" d="M358.27,102.46V38.22L371,36.16V57.69a26.54,26.54,0,0,1,3.29-.81,20.71,20.71,0,0,1,3.89-.38,24,24,0,0,1,9.1,1.5,14.15,14.15,0,0,1,5.81,4.23,16.36,16.36,0,0,1,3.08,6.49,36.22,36.22,0,0,1,.9,8.37v25.37H384.33V78.63q0-6.15-1.58-8.71t-5.85-2.56a16.4,16.4,0,0,0-3.2.3q-1.5.3-2.69.64v34.17Z"/><path class="cls-1" d="M443.79,57.52q-3.85,13-8,24.35t-9.17,22a49.87,49.87,0,0,1-3.6,6.53,20,20,0,0,1-3.94,4.44,13.86,13.86,0,0,1-4.83,2.56,21.89,21.89,0,0,1-6.29.81,25.82,25.82,0,0,1-5.52-.55,24.7,24.7,0,0,1-4.15-1.24l2.22-10.17a21.68,21.68,0,0,0,3.51.94,19.8,19.8,0,0,0,3.25.26,7.11,7.11,0,0,0,5.25-1.84,14.77,14.77,0,0,0,3.12-5.08Q411.24,92,406.88,81.4a238.69,238.69,0,0,1-8.2-23.88h13.5q.86,3.33,2,7.22t2.45,7.86q1.28,4,2.62,7.73t2.53,6.84q1.11-3.07,2.32-6.84t2.36-7.73q1.16-4,2.23-7.86t1.93-7.22Z"/><path class="cls-1" d="M467.71,103.23q-4.87,0-9.7-.3a68.53,68.53,0,0,1-10-1.41V44.11a84.81,84.81,0,0,1,9-1.15q4.87-.38,9.06-.38a61.71,61.71,0,0,1,10.38.81,24.58,24.58,0,0,1,8.16,2.78,14.58,14.58,0,0,1,5.34,5.17,15.11,15.11,0,0,1,1.92,7.9q0,7.09-6.83,11.19,5.64,2.13,7.69,5.81a16.73,16.73,0,0,1,2,8.29q0,9.31-6.79,14T467.71,103.23ZM461,66.5h6.49q6.15,0,8.8-1.58a5.47,5.47,0,0,0,2.65-5.08,5.23,5.23,0,0,0-2.73-5q-2.73-1.45-8-1.45-1.71,0-3.67,0t-3.5.21Zm0,10.17V92q1.45.17,3.16.26t3.76.09a23.08,23.08,0,0,0,9.65-1.71q3.67-1.71,3.67-6.32,0-4.1-3.08-5.85t-8.8-1.75Z"/><path class="cls-1" d="M528.2,68.8c-1.14-.29-2.48-.58-4-.9a25,25,0,0,0-5-.47,23.34,23.34,0,0,0-2.86.21,16.64,16.64,0,0,0-2.52.47v34.34H501.11V59.92a76.83,76.83,0,0,1,8.07-2.26,46.56,46.56,0,0,1,10.38-1.07q1,0,2.48.13t2.91.34q1.45.21,2.9.51a13.61,13.61,0,0,1,2.48.73Z"/><path class="cls-1" d="M574.93,79.91a29.23,29.23,0,0,1-1.54,9.7,21,21,0,0,1-4.44,7.52,19.94,19.94,0,0,1-7,4.83,24.83,24.83,0,0,1-18.11,0,19.94,19.94,0,0,1-7-4.83,22.09,22.09,0,0,1-4.53-7.52,27.82,27.82,0,0,1-1.62-9.7,26.86,26.86,0,0,1,1.67-9.66A21.93,21.93,0,0,1,537,62.82,20.73,20.73,0,0,1,544,58a23.93,23.93,0,0,1,17.77,0,20.27,20.27,0,0,1,7,4.78,21.71,21.71,0,0,1,4.53,7.43A27.48,27.48,0,0,1,574.93,79.91Zm-13,0q0-5.89-2.35-9.27a7.68,7.68,0,0,0-6.71-3.37,7.79,7.79,0,0,0-6.75,3.37q-2.39,3.38-2.39,9.27t2.39,9.35a7.73,7.73,0,0,0,6.75,3.46,7.63,7.63,0,0,0,6.71-3.46Q561.94,85.8,561.94,79.91Z"/><path class="cls-1" d="M594.06,73.66q1.88-2,3.88-4.24T601.83,65q1.88-2.17,3.54-4.12t2.86-3.4h15.14q-4.53,5.2-8.84,9.93t-9.44,9.76a58.79,58.79,0,0,1,5.3,5.52q2.73,3.21,5.3,6.63t4.7,6.85q2.13,3.42,3.59,6.25H609.33q-1.37-2.23-3.11-4.92t-3.71-5.4q-2-2.7-4.14-5.18a34.73,34.73,0,0,0-4.31-4.2v19.7H581.34V38.22l12.73-2.05Z"/><path class="cls-1" d="M622.17,80.33A27.48,27.48,0,0,1,624,69.87a22.43,22.43,0,0,1,4.83-7.48,20.1,20.1,0,0,1,6.88-4.53,21.55,21.55,0,0,1,8-1.54q9.57,0,15.12,5.85t5.55,17.21q0,1.11-.09,2.43c-.06.88-.12,1.67-.17,2.35H635.24a8.45,8.45,0,0,0,3.67,6.24q3.25,2.31,8.71,2.31a36.91,36.91,0,0,0,6.88-.64A26.06,26.06,0,0,0,660,90.5l1.71,10.34a17.65,17.65,0,0,1-2.73,1,35.48,35.48,0,0,1-3.8.9q-2.1.39-4.49.64a45,45,0,0,1-4.78.26,28.3,28.3,0,0,1-10.55-1.8A20.54,20.54,0,0,1,627.94,97a19.49,19.49,0,0,1-4.36-7.39A29.27,29.27,0,0,1,622.17,80.33Zm29.9-4.87a13.17,13.17,0,0,0-.56-3.16,7.9,7.9,0,0,0-1.45-2.73,7.76,7.76,0,0,0-2.48-2,8.07,8.07,0,0,0-3.72-.77,8.55,8.55,0,0,0-3.67.73,7.6,7.6,0,0,0-2.56,1.92,8.61,8.61,0,0,0-1.58,2.78,18.16,18.16,0,0,0-.81,3.2Z"/><path class="cls-1" d="M697.87,68.8c-1.14-.29-2.48-.58-4-.9a25,25,0,0,0-5-.47,23.34,23.34,0,0,0-2.86.21,16.64,16.64,0,0,0-2.52.47v34.34H670.78V59.92a76.83,76.83,0,0,1,8.07-2.26,46.56,46.56,0,0,1,10.38-1.07q1,0,2.48.13t2.91.34q1.45.21,2.9.51a13.61,13.61,0,0,1,2.48.73Z"/><path class="cls-1" d="M60.2,136.39h4.62a3.37,3.37,0,0,1,3.37,3.37v5.6a3,3,0,0,1-3,3h-5A3.37,3.37,0,0,1,56.83,145v-5.25a3.37,3.37,0,0,1,3.37-3.37Z"/><path class="cls-1" d="M82.93,28.41h4.62a3.37,3.37,0,0,1,3.37,3.37v5.6a3,3,0,0,1-3,3h-5A3.37,3.37,0,0,1,79.56,37V31.79a3.37,3.37,0,0,1,3.37-3.37Z"/><path class="cls-1" d="M82.93,113h4.62a3.37,3.37,0,0,1,3.37,3.37V122a3,3,0,0,1-3,3h-5a3.37,3.37,0,0,1-3.37-3.37V116.4A3.37,3.37,0,0,1,82.93,113Z"/><path class="cls-1" d="M3.37,11.37H8a3.37,3.37,0,0,1,3.37,3.37v5.6a3,3,0,0,1-3,3h-5A3.37,3.37,0,0,1,0,20V14.74A3.37,3.37,0,0,1,3.37,11.37Z"/><path class="cls-1" d="M3.37,68.2H8a3.37,3.37,0,0,1,3.37,3.37v5.6a3,3,0,0,1-3,3h-5A3.37,3.37,0,0,1,0,76.82V71.57A3.37,3.37,0,0,1,3.37,68.2Z"/><rect class="cls-1" x="45.46" y="62.51" width="17.05" height="17.05" rx="3.31" ry="3.31"/><rect class="cls-1" x="90.93" y="125.03" width="17.05" height="17.05" rx="3.31" ry="3.31"/><rect class="cls-1" x="73.88" y="85.24" width="17.05" height="17.05" rx="3.31" ry="3.31"/><rect class="cls-1" x="28.41" y="45.46" width="17.05" height="17.05" rx="3.31" ry="3.31"/><rect class="cls-1" x="17.05" y="22.73" width="17.05" height="17.05" rx="3.31" ry="3.31"/><rect class="cls-1" x="39.78" width="17.05" height="17.05" rx="3.31" ry="3.31"/><rect class="cls-1" x="22.73" y="79.56" width="22.73" height="22.73" rx="4.37" ry="4.37"/><rect class="cls-1" x="45.46" y="22.73" width="22.73" height="22.73" rx="4.37" ry="4.37"/><rect class="cls-1" x="90.93" y="5.68" width="22.73" height="22.73" rx="4.37" ry="4.37"/><rect class="cls-1" x="5.68" y="113.66" width="22.73" height="22.73" rx="4.37" ry="4.37"/><rect class="cls-1" x="45.46" y="102.29" width="28.41" height="28.41" rx="5.08" ry="5.08"/><rect class="cls-1" x="68.2" y="45.46" width="28.41" height="28.41" rx="5.08" ry="5.08"/><path class="cls-1" d="M87.14,121.24h3.79A3.79,3.79,0,0,0,94.72,125h0v3.79H90.93A3.79,3.79,0,0,0,87.14,125h0Z"/><path class="cls-1" d="M94.72,24.63H90.93a3.79,3.79,0,0,1-3.79,3.79h0V32.2h3.79a3.79,3.79,0,0,1,3.79-3.79h0Z"/><path class="cls-1" d="M51.15,39.78H45.46a5.68,5.68,0,0,1-5.68,5.68h0v5.68h5.68a5.68,5.68,0,0,1,5.68-5.68h0Z"/><path class="cls-1" d="M51.15,73.88H45.46a5.68,5.68,0,0,1-5.68,5.68h0v5.68h5.68a5.68,5.68,0,0,1,5.68-5.68h0Z"/><path class="cls-1" d="M39.78,56.83h5.68a5.68,5.68,0,0,0,5.68,5.68h0V68.2H45.46a5.68,5.68,0,0,0-5.68-5.68h0Z"/><path class="cls-1" d="M39.78,96.61h5.68a5.68,5.68,0,0,0,5.68,5.68h0V108H45.46a5.68,5.68,0,0,0-5.68-5.68h0Z"/><path class="cls-1" d="M79.56,96.61H73.88a5.68,5.68,0,0,1-5.68,5.68h0V108h5.68a5.68,5.68,0,0,1,5.68-5.68h0Z"/><path class="cls-1" d="M61.25,38.52H68.2a7,7,0,0,0,6.95,6.95h0v6.95H68.2a7,7,0,0,0-6.95-6.95h0Z"/><path class="cls-1" d="M465.69,121.48a7.35,7.35,0,0,1-2.73,6.15q-2.72,2.14-7.72,2.14H451V141.2H449V113.52h6.78Q465.69,113.52,465.69,121.48ZM451,128.1h3.81q4.68,0,6.76-1.54t2.08-5a5.65,5.65,0,0,0-2-4.74q-2-1.54-6.1-1.54H451Z"/><path class="cls-1" d="M479.55,141.58a9,9,0,0,1-7-2.76q-2.51-2.76-2.51-7.74a12.06,12.06,0,0,1,2.42-7.89,8,8,0,0,1,6.53-3,7.05,7.05,0,0,1,5.74,2.54,10.48,10.48,0,0,1,2.1,6.89v1.51H472q0,4.24,2,6.47a7,7,0,0,0,5.56,2.24,17.22,17.22,0,0,0,3.09-.25,18.79,18.79,0,0,0,3.38-1.06v1.7a15,15,0,0,1-3.22,1A17.87,17.87,0,0,1,479.55,141.58ZM479,121.89a6.17,6.17,0,0,0-4.77,2,9.25,9.25,0,0,0-2.1,5.65h12.73a9,9,0,0,0-1.55-5.59A5.13,5.13,0,0,0,479,121.89Z"/><path class="cls-1" d="M509.54,130.88q0,5-2.44,7.87a8.43,8.43,0,0,1-6.74,2.83,8.72,8.72,0,0,1-4.77-1.31,8.37,8.37,0,0,1-3.16-3.75,13.64,13.64,0,0,1-1.1-5.64q0-5,2.44-7.85a8.42,8.42,0,0,1,6.7-2.81,8.26,8.26,0,0,1,6.65,2.85Q509.54,125.93,509.54,130.88Zm-16.24,0a10.47,10.47,0,0,0,1.87,6.62,7,7,0,0,0,10.55,0,10.48,10.48,0,0,0,1.86-6.62,10.31,10.31,0,0,0-1.88-6.61,6.4,6.4,0,0,0-5.29-2.35,6.3,6.3,0,0,0-5.25,2.34A10.44,10.44,0,0,0,493.29,130.88Z"/><path class="cls-1" d="M524,141.58q-4.75,0-6.93-3.56H517l.06,1.59q.07,1.4.08,3.07v7.84h-1.87V120.62h1.59l.36,2.93h.11q2.12-3.33,6.78-3.33a7.65,7.65,0,0,1,6.35,2.74q2.19,2.73,2.19,8,0,5.07-2.3,7.87A7.7,7.7,0,0,1,524,141.58Zm0-1.67a5.72,5.72,0,0,0,4.89-2.35,10.88,10.88,0,0,0,1.73-6.57q0-9.07-6.55-9.07-3.6,0-5.28,2t-1.69,6.45V131q0,4.83,1.62,6.89T524,139.92Z"/><path class="cls-1" d="M540.19,141.2h-1.88V111.74h1.88Z"/><path class="cls-1" d="M555.39,141.58a9,9,0,0,1-7-2.76q-2.51-2.76-2.51-7.74a12.06,12.06,0,0,1,2.42-7.89,8,8,0,0,1,6.53-3,7,7,0,0,1,5.74,2.54,10.48,10.48,0,0,1,2.1,6.89v1.51H547.86q0,4.24,2,6.47a7,7,0,0,0,5.56,2.24,17.25,17.25,0,0,0,3.1-.25,18.78,18.78,0,0,0,3.38-1.06v1.7a15,15,0,0,1-3.22,1A17.89,17.89,0,0,1,555.39,141.58Zm-.55-19.69a6.17,6.17,0,0,0-4.77,2,9.24,9.24,0,0,0-2.1,5.65h12.72a9,9,0,0,0-1.55-5.59A5.12,5.12,0,0,0,554.84,121.89Z"/><path class="cls-1" d="M575,134.18a7.16,7.16,0,0,1,1.39-4.45,16.23,16.23,0,0,1,5.2-3.88l-1.42-1.55a10.51,10.51,0,0,1-1.85-2.63,6.25,6.25,0,0,1-.61-2.69,5.43,5.43,0,0,1,1.81-4.3,7.1,7.1,0,0,1,4.86-1.59,6.71,6.71,0,0,1,4.65,1.53,5.39,5.39,0,0,1,1.71,4.24,5.7,5.7,0,0,1-1.32,3.64,17.74,17.74,0,0,1-4.79,3.68l8.56,8.65a15.16,15.16,0,0,0,2-3,20.49,20.49,0,0,0,1.42-3.81h1.82a20.82,20.82,0,0,1-4,8.07l5,5.07H596.9l-3.65-3.73a16.34,16.34,0,0,1-3.11,2.49,11.82,11.82,0,0,1-3,1.2,14.83,14.83,0,0,1-3.68.42,9.22,9.22,0,0,1-6.22-2A6.81,6.81,0,0,1,575,134.18Zm8.62,5.7a11.65,11.65,0,0,0,4.44-.82,12.26,12.26,0,0,0,4-2.77l-9.14-9.18a22.8,22.8,0,0,0-3.72,2.32,6.07,6.07,0,0,0-1.67,2.07,6.13,6.13,0,0,0-.52,2.61,5.33,5.33,0,0,0,1.76,4.24A7.2,7.2,0,0,0,583.6,139.88Zm-3.88-20.94a5.29,5.29,0,0,0,.76,2.76,17.63,17.63,0,0,0,2.88,3.29,14.42,14.42,0,0,0,4.18-3,4.84,4.84,0,0,0,1.18-3.2,3.79,3.79,0,0,0-1.18-2.89,4.44,4.44,0,0,0-3.18-1.11,5,5,0,0,0-3.4,1.1A3.86,3.86,0,0,0,579.72,118.94Z"/><path class="cls-1" d="M630.66,127.1q0,7-3.65,10.54t-10.74,3.57h-6.63V113.52h7.48q6.63,0,10.08,3.46T630.66,127.1Zm-2.1.07q0-5.94-3-8.95t-8.87-3h-5.09V139.5h4.58Q628.56,139.5,628.56,127.17Z"/><path class="cls-1" d="M649,141.2l-.47-3.26h-.15a9.79,9.79,0,0,1-3.19,2.81,8.52,8.52,0,0,1-3.87.82,6.7,6.7,0,0,1-4.71-1.55,5.55,5.55,0,0,1-1.69-4.3,5.3,5.3,0,0,1,2.51-4.68q2.51-1.66,7.26-1.76l3.92-.11v-1.36a7,7,0,0,0-1.19-4.43,4.63,4.63,0,0,0-3.84-1.5,12.85,12.85,0,0,0-5.93,1.59l-.7-1.63a15.66,15.66,0,0,1,6.7-1.59,6.68,6.68,0,0,1,5.06,1.76q1.67,1.76,1.68,5.49V141.2Zm-7.57-1.32a6.55,6.55,0,0,0,7.1-7.12v-2l-3.6.15q-4.34.21-6.18,1.35a3.9,3.9,0,0,0-1.84,3.57,3.84,3.84,0,0,0,1.18,3A4.81,4.81,0,0,0,641.47,139.88Z"/><path class="cls-1" d="M662.52,139.92a14.07,14.07,0,0,0,3.11-.3v1.51a9.94,9.94,0,0,1-3.14.45,5.11,5.11,0,0,1-4-1.46,6.77,6.77,0,0,1-1.3-4.58V122.25h-3v-1.1l3-.85.94-4.66h1v5h6v1.63h-6v13a5.94,5.94,0,0,0,.83,3.5A3,3,0,0,0,662.52,139.92Z"/><path class="cls-1" d="M682.57,141.2l-.47-3.26h-.15a9.79,9.79,0,0,1-3.19,2.81,8.52,8.52,0,0,1-3.87.82,6.7,6.7,0,0,1-4.71-1.55,5.55,5.55,0,0,1-1.69-4.3,5.3,5.3,0,0,1,2.51-4.68q2.51-1.66,7.26-1.76l3.92-.11v-1.36a7,7,0,0,0-1.19-4.43,4.63,4.63,0,0,0-3.84-1.5,12.85,12.85,0,0,0-5.93,1.59l-.7-1.63a15.66,15.66,0,0,1,6.7-1.59,6.68,6.68,0,0,1,5.06,1.76q1.67,1.76,1.68,5.49V141.2ZM675,139.88a6.55,6.55,0,0,0,7.1-7.12v-2l-3.6.15q-4.34.21-6.18,1.35a3.9,3.9,0,0,0-1.84,3.57,3.84,3.84,0,0,0,1.18,3A4.81,4.81,0,0,0,675,139.88Z"/></g></g></svg>